<svg width="170" height="19" viewBox="0 0 170 19" fill="none" xmlns="http://www.w3.org/2000/svg">
<path d="M13.68 13.716C13.88 13.716 14.048 13.788 14.184 13.932L15.612 15.456C14.908 16.352 14.032 17.032 12.984 17.496C11.944 17.96 10.704 18.192 9.264 18.192C7.96 18.192 6.788 17.972 5.748 17.532C4.708 17.084 3.824 16.464 3.096 15.672C2.368 14.88 1.808 13.94 1.416 12.852C1.024 11.764 0.828 10.576 0.828 9.288C0.828 8.424 0.92 7.604 1.104 6.828C1.296 6.044 1.572 5.324 1.932 4.668C2.292 4.012 2.724 3.42 3.228 2.892C3.74 2.364 4.316 1.916 4.956 1.548C5.596 1.172 6.292 0.887999 7.044 0.696C7.804 0.495999 8.612 0.395998 9.468 0.395998C10.108 0.395998 10.712 0.451999 11.28 0.563999C11.856 0.676 12.392 0.832 12.888 1.032C13.384 1.232 13.84 1.476 14.256 1.764C14.68 2.044 15.06 2.352 15.396 2.688L14.184 4.344C14.112 4.448 14.02 4.54 13.908 4.62C13.796 4.7 13.644 4.74 13.452 4.74C13.26 4.74 13.064 4.672 12.864 4.536C12.672 4.4 12.432 4.248 12.144 4.08C11.864 3.912 11.508 3.76 11.076 3.624C10.652 3.488 10.112 3.42 9.456 3.42C8.728 3.42 8.06 3.552 7.452 3.816C6.844 4.08 6.32 4.464 5.88 4.968C5.448 5.464 5.112 6.076 4.872 6.804C4.632 7.532 4.512 8.36 4.512 9.288C4.512 10.224 4.64 11.06 4.896 11.796C5.16 12.524 5.516 13.14 5.964 13.644C6.42 14.148 6.948 14.532 7.548 14.796C8.156 15.052 8.804 15.18 9.492 15.18C9.9 15.18 10.268 15.16 10.596 15.12C10.932 15.08 11.24 15.012 11.52 14.916C11.808 14.82 12.076 14.696 12.324 14.544C12.58 14.392 12.836 14.2 13.092 13.968C13.18 13.896 13.272 13.836 13.368 13.788C13.464 13.74 13.568 13.716 13.68 13.716ZM26.8363 11.388L24.9523 6.06C24.8403 5.78 24.7203 5.452 24.5923 5.076C24.4723 4.7 24.3563 4.292 24.2443 3.852C24.1323 4.3 24.0123 4.716 23.8843 5.1C23.7643 5.476 23.6483 5.804 23.5363 6.084L21.6643 11.388H26.8363ZM32.8843 18H30.0883C29.7763 18 29.5203 17.928 29.3203 17.784C29.1283 17.632 28.9843 17.44 28.8883 17.208L27.7123 13.884H20.7763L19.6003 17.208C19.5203 17.408 19.3803 17.592 19.1803 17.76C18.9803 17.92 18.7283 18 18.4243 18H15.6043L22.4083 0.587999H26.0923L32.8843 18ZM41.1786 15.12C41.7626 15.12 42.2866 15.024 42.7506 14.832C43.2146 14.632 43.6066 14.352 43.9266 13.992C44.2466 13.632 44.4906 13.196 44.6586 12.684C44.8266 12.172 44.9106 11.596 44.9106 10.956V0.587999H48.5106V10.956C48.5106 12.012 48.3386 12.984 47.9946 13.872C47.6586 14.752 47.1746 15.512 46.5426 16.152C45.9106 16.792 45.1426 17.292 44.2386 17.652C43.3346 18.012 42.3146 18.192 41.1786 18.192C40.0426 18.192 39.0186 18.012 38.1066 17.652C37.2026 17.292 36.4346 16.792 35.8026 16.152C35.1706 15.512 34.6826 14.752 34.3386 13.872C34.0026 12.984 33.8346 12.012 33.8346 10.956V0.587999H37.4346V10.956C37.4346 11.596 37.5186 12.172 37.6866 12.684C37.8546 13.196 38.0986 13.632 38.4186 13.992C38.7386 14.352 39.1306 14.632 39.5946 14.832C40.0586 15.024 40.5866 15.12 41.1786 15.12ZM76.8287 0.587999V18H73.6487V7.308C73.6487 7.084 73.6527 6.844 73.6607 6.588C73.6767 6.332 73.7007 6.072 73.7327 5.808L68.7527 15.252C68.4807 15.772 68.0607 16.032 67.4927 16.032H66.9887C66.7087 16.032 66.4607 15.968 66.2447 15.84C66.0287 15.704 65.8567 15.508 65.7287 15.252L60.7247 5.772C60.7487 6.052 60.7687 6.324 60.7847 6.588C60.8007 6.844 60.8087 7.084 60.8087 7.308V18H57.6287V0.587999H60.3647C60.5167 0.587999 60.6527 0.591999 60.7727 0.599999C60.8927 0.607999 60.9967 0.631999 61.0847 0.671999C61.1807 0.703999 61.2647 0.759999 61.3367 0.839999C61.4167 0.911999 61.4927 1.016 61.5647 1.152L66.4367 10.44C66.5887 10.72 66.7287 11.008 66.8567 11.304C66.9927 11.6 67.1207 11.904 67.2407 12.216C67.3607 11.896 67.4847 11.584 67.6127 11.28C67.7487 10.976 67.8927 10.684 68.0447 10.404L72.8807 1.152C72.9527 1.016 73.0287 0.911999 73.1087 0.839999C73.1887 0.759999 73.2727 0.703999 73.3607 0.671999C73.4567 0.631999 73.5607 0.607999 73.6727 0.599999C73.7927 0.591999 73.9327 0.587999 74.0927 0.587999H76.8287ZM87.4738 10.356C87.4738 10.012 87.4258 9.684 87.3298 9.372C87.2418 9.06 87.0978 8.784 86.8978 8.544C86.6978 8.304 86.4458 8.116 86.1418 7.98C85.8378 7.836 85.4738 7.764 85.0498 7.764C84.2578 7.764 83.6378 7.988 83.1898 8.436C82.7418 8.884 82.4498 9.524 82.3138 10.356H87.4738ZM82.2658 12.324C82.3698 13.484 82.6978 14.332 83.2498 14.868C83.8098 15.404 84.5378 15.672 85.4338 15.672C85.8898 15.672 86.2818 15.62 86.6098 15.516C86.9458 15.404 87.2378 15.284 87.4858 15.156C87.7418 15.02 87.9698 14.9 88.1698 14.796C88.3778 14.684 88.5818 14.628 88.7818 14.628C89.0378 14.628 89.2378 14.724 89.3818 14.916L90.3418 16.116C89.9898 16.524 89.6018 16.864 89.1778 17.136C88.7538 17.4 88.3138 17.612 87.8578 17.772C87.4018 17.924 86.9418 18.028 86.4778 18.084C86.0138 18.148 85.5658 18.18 85.1338 18.18C84.2698 18.18 83.4618 18.04 82.7098 17.76C81.9658 17.472 81.3138 17.052 80.7538 16.5C80.2018 15.94 79.7658 15.248 79.4458 14.424C79.1258 13.6 78.9658 12.644 78.9658 11.556C78.9658 10.716 79.1018 9.924 79.3738 9.18C79.6538 8.436 80.0538 7.788 80.5738 7.236C81.0938 6.684 81.7258 6.248 82.4698 5.928C83.2138 5.6 84.0538 5.436 84.9898 5.436C85.7818 5.436 86.5098 5.564 87.1738 5.82C87.8458 6.068 88.4218 6.432 88.9018 6.912C89.3898 7.392 89.7658 7.984 90.0298 8.688C90.3018 9.384 90.4378 10.18 90.4378 11.076C90.4378 11.324 90.4258 11.528 90.4018 11.688C90.3778 11.848 90.3378 11.976 90.2818 12.072C90.2258 12.168 90.1498 12.236 90.0538 12.276C89.9578 12.308 89.8338 12.324 89.6818 12.324H82.2658ZM96.6244 18.192C96.0644 18.192 95.5684 18.112 95.1364 17.952C94.7044 17.784 94.3404 17.548 94.0444 17.244C93.7484 16.94 93.5244 16.572 93.3724 16.14C93.2204 15.708 93.1444 15.22 93.1444 14.676V8.004H91.9804C91.8044 8.004 91.6524 7.948 91.5244 7.836C91.4044 7.724 91.3444 7.556 91.3444 7.332V6.036L93.3244 5.676L93.9964 2.472C94.0844 2.112 94.3284 1.932 94.7284 1.932H96.4564V5.7H99.6484V8.004H96.4564V14.46C96.4564 14.804 96.5364 15.076 96.6964 15.276C96.8644 15.476 97.1004 15.576 97.4044 15.576C97.5644 15.576 97.7004 15.56 97.8124 15.528C97.9244 15.488 98.0204 15.448 98.1004 15.408C98.1804 15.36 98.2524 15.32 98.3164 15.288C98.3884 15.248 98.4604 15.228 98.5324 15.228C98.6284 15.228 98.7084 15.252 98.7724 15.3C98.8364 15.34 98.9004 15.412 98.9644 15.516L99.9604 17.1C99.5044 17.46 98.9884 17.732 98.4124 17.916C97.8364 18.1 97.2404 18.192 96.6244 18.192ZM107.891 12.828C107.083 12.868 106.411 12.94 105.875 13.044C105.339 13.14 104.911 13.268 104.591 13.428C104.279 13.588 104.055 13.772 103.919 13.98C103.791 14.18 103.727 14.4 103.727 14.64C103.727 15.12 103.859 15.46 104.123 15.66C104.395 15.86 104.771 15.96 105.251 15.96C105.803 15.96 106.279 15.864 106.679 15.672C107.087 15.472 107.491 15.164 107.891 14.748V12.828ZM101.147 7.344C101.875 6.688 102.679 6.2 103.559 5.88C104.439 5.552 105.391 5.388 106.415 5.388C107.151 5.388 107.807 5.508 108.383 5.748C108.967 5.988 109.459 6.324 109.859 6.756C110.267 7.18 110.579 7.688 110.795 8.28C111.011 8.872 111.119 9.52 111.119 10.224V18H109.607C109.295 18 109.055 17.956 108.887 17.868C108.727 17.78 108.595 17.596 108.491 17.316L108.227 16.524C107.915 16.796 107.611 17.036 107.315 17.244C107.027 17.452 106.727 17.628 106.415 17.772C106.103 17.908 105.767 18.012 105.407 18.084C105.055 18.156 104.659 18.192 104.219 18.192C103.675 18.192 103.179 18.12 102.731 17.976C102.283 17.832 101.895 17.62 101.567 17.34C101.247 17.052 100.999 16.696 100.823 16.272C100.647 15.848 100.559 15.36 100.559 14.808C100.559 14.352 100.675 13.896 100.907 13.44C101.139 12.984 101.535 12.572 102.095 12.204C102.663 11.828 103.415 11.52 104.351 11.28C105.295 11.032 106.475 10.892 107.891 10.86V10.224C107.891 9.448 107.727 8.88 107.399 8.52C107.071 8.152 106.599 7.968 105.983 7.968C105.527 7.968 105.147 8.024 104.843 8.136C104.539 8.24 104.271 8.356 104.039 8.484C103.815 8.604 103.603 8.72 103.403 8.832C103.203 8.936 102.971 8.988 102.707 8.988C102.475 8.988 102.279 8.932 102.119 8.82C101.967 8.7 101.839 8.56 101.735 8.4L101.147 7.344ZM124.787 5.628L119.927 18H116.927L112.067 5.628H114.815C115.055 5.628 115.255 5.684 115.415 5.796C115.575 5.908 115.687 6.052 115.751 6.228L117.827 12.348C117.963 12.764 118.083 13.172 118.187 13.572C118.291 13.964 118.383 14.36 118.463 14.76C118.551 14.36 118.647 13.964 118.751 13.572C118.863 13.172 118.991 12.764 119.135 12.348L121.283 6.228C121.339 6.052 121.447 5.908 121.607 5.796C121.767 5.684 121.955 5.628 122.171 5.628H124.787ZM133.646 10.356C133.646 10.012 133.598 9.684 133.502 9.372C133.414 9.06 133.27 8.784 133.07 8.544C132.87 8.304 132.618 8.116 132.314 7.98C132.01 7.836 131.646 7.764 131.222 7.764C130.43 7.764 129.81 7.988 129.362 8.436C128.914 8.884 128.622 9.524 128.486 10.356H133.646ZM128.438 12.324C128.542 13.484 128.87 14.332 129.422 14.868C129.982 15.404 130.71 15.672 131.606 15.672C132.062 15.672 132.454 15.62 132.782 15.516C133.118 15.404 133.41 15.284 133.658 15.156C133.914 15.02 134.142 14.9 134.342 14.796C134.55 14.684 134.754 14.628 134.954 14.628C135.21 14.628 135.41 14.724 135.554 14.916L136.514 16.116C136.162 16.524 135.774 16.864 135.35 17.136C134.926 17.4 134.486 17.612 134.03 17.772C133.574 17.924 133.114 18.028 132.65 18.084C132.186 18.148 131.738 18.18 131.306 18.18C130.442 18.18 129.634 18.04 128.882 17.76C128.138 17.472 127.486 17.052 126.926 16.5C126.374 15.94 125.938 15.248 125.618 14.424C125.298 13.6 125.138 12.644 125.138 11.556C125.138 10.716 125.274 9.924 125.546 9.18C125.826 8.436 126.226 7.788 126.746 7.236C127.266 6.684 127.898 6.248 128.642 5.928C129.386 5.6 130.226 5.436 131.162 5.436C131.954 5.436 132.682 5.564 133.346 5.82C134.018 6.068 134.594 6.432 135.074 6.912C135.562 7.392 135.938 7.984 136.202 8.688C136.474 9.384 136.61 10.18 136.61 11.076C136.61 11.324 136.598 11.528 136.574 11.688C136.55 11.848 136.51 11.976 136.454 12.072C136.398 12.168 136.322 12.236 136.226 12.276C136.13 12.308 136.006 12.324 135.854 12.324H128.438ZM141.773 7.668C142.165 6.964 142.617 6.408 143.129 6C143.641 5.592 144.241 5.388 144.929 5.388C145.489 5.388 145.945 5.52 146.297 5.784L146.081 8.232C146.041 8.392 145.977 8.504 145.889 8.568C145.809 8.624 145.697 8.652 145.553 8.652C145.425 8.652 145.241 8.636 145.001 8.604C144.761 8.564 144.537 8.544 144.329 8.544C144.025 8.544 143.753 8.588 143.513 8.676C143.281 8.764 143.073 8.888 142.889 9.048C142.705 9.208 142.537 9.404 142.385 9.636C142.241 9.868 142.105 10.132 141.977 10.428V18H138.665V5.628H140.621C140.957 5.628 141.189 5.688 141.317 5.808C141.445 5.928 141.537 6.136 141.593 6.432L141.773 7.668ZM155.38 8.172C155.292 8.308 155.2 8.408 155.104 8.472C155.016 8.528 154.892 8.556 154.732 8.556C154.572 8.556 154.408 8.516 154.24 8.436C154.072 8.356 153.884 8.272 153.676 8.184C153.468 8.088 153.228 8 152.956 7.92C152.692 7.84 152.384 7.8 152.032 7.8C151.496 7.8 151.08 7.912 150.784 8.136C150.488 8.352 150.34 8.64 150.34 9C150.34 9.248 150.424 9.456 150.592 9.624C150.76 9.792 150.98 9.94 151.252 10.068C151.532 10.188 151.848 10.304 152.2 10.416C152.552 10.52 152.912 10.636 153.28 10.764C153.656 10.892 154.02 11.04 154.372 11.208C154.724 11.376 155.036 11.588 155.308 11.844C155.588 12.092 155.812 12.396 155.98 12.756C156.148 13.108 156.232 13.536 156.232 14.04C156.232 14.64 156.12 15.196 155.896 15.708C155.68 16.212 155.36 16.648 154.936 17.016C154.512 17.384 153.984 17.672 153.352 17.88C152.72 18.088 151.992 18.192 151.168 18.192C150.744 18.192 150.324 18.152 149.908 18.072C149.492 18 149.096 17.896 148.72 17.76C148.344 17.616 147.992 17.452 147.664 17.268C147.336 17.084 147.052 16.884 146.812 16.668L147.58 15.432C147.668 15.288 147.776 15.176 147.904 15.096C148.04 15.016 148.212 14.976 148.42 14.976C148.62 14.976 148.804 15.028 148.972 15.132C149.14 15.228 149.328 15.336 149.536 15.456C149.744 15.568 149.988 15.676 150.268 15.78C150.556 15.876 150.912 15.924 151.336 15.924C151.656 15.924 151.932 15.888 152.164 15.816C152.396 15.744 152.584 15.648 152.728 15.528C152.872 15.4 152.976 15.26 153.04 15.108C153.112 14.948 153.148 14.784 153.148 14.616C153.148 14.344 153.06 14.124 152.884 13.956C152.716 13.78 152.492 13.628 152.212 13.5C151.94 13.372 151.624 13.256 151.264 13.152C150.904 13.048 150.536 12.932 150.16 12.804C149.792 12.676 149.428 12.524 149.068 12.348C148.716 12.172 148.4 11.952 148.12 11.688C147.848 11.416 147.624 11.084 147.448 10.692C147.28 10.3 147.196 9.824 147.196 9.264C147.196 8.752 147.296 8.268 147.496 7.812C147.696 7.348 147.996 6.94 148.396 6.588C148.796 6.236 149.292 5.956 149.884 5.748C150.484 5.54 151.176 5.436 151.96 5.436C152.84 5.436 153.64 5.58 154.36 5.868C155.08 6.156 155.672 6.532 156.136 6.996L155.38 8.172ZM166.154 10.356C166.154 10.012 166.106 9.684 166.01 9.372C165.922 9.06 165.778 8.784 165.578 8.544C165.378 8.304 165.126 8.116 164.822 7.98C164.518 7.836 164.154 7.764 163.73 7.764C162.938 7.764 162.318 7.988 161.87 8.436C161.422 8.884 161.13 9.524 160.994 10.356H166.154ZM160.946 12.324C161.05 13.484 161.378 14.332 161.93 14.868C162.49 15.404 163.218 15.672 164.114 15.672C164.57 15.672 164.962 15.62 165.29 15.516C165.626 15.404 165.918 15.284 166.166 15.156C166.422 15.02 166.65 14.9 166.85 14.796C167.058 14.684 167.262 14.628 167.462 14.628C167.718 14.628 167.918 14.724 168.062 14.916L169.022 16.116C168.67 16.524 168.282 16.864 167.858 17.136C167.434 17.4 166.994 17.612 166.538 17.772C166.082 17.924 165.622 18.028 165.158 18.084C164.694 18.148 164.246 18.18 163.814 18.18C162.95 18.18 162.142 18.04 161.39 17.76C160.646 17.472 159.994 17.052 159.434 16.5C158.882 15.94 158.446 15.248 158.126 14.424C157.806 13.6 157.646 12.644 157.646 11.556C157.646 10.716 157.782 9.924 158.054 9.18C158.334 8.436 158.734 7.788 159.254 7.236C159.774 6.684 160.406 6.248 161.15 5.928C161.894 5.6 162.734 5.436 163.67 5.436C164.462 5.436 165.19 5.564 165.854 5.82C166.526 6.068 167.102 6.432 167.582 6.912C168.07 7.392 168.446 7.984 168.71 8.688C168.982 9.384 169.118 10.18 169.118 11.076C169.118 11.324 169.106 11.528 169.082 11.688C169.058 11.848 169.018 11.976 168.962 12.072C168.906 12.168 168.83 12.236 168.734 12.276C168.638 12.308 168.514 12.324 168.362 12.324H160.946Z" fill="#ECECEC"/>
</svg>
