<svg width="113" height="19" viewBox="0 0 113 19" fill="none" xmlns="http://www.w3.org/2000/svg">
<path d="M20.024 0.587999V18H16.844V7.308C16.844 7.084 16.848 6.844 16.856 6.588C16.872 6.332 16.896 6.072 16.928 5.808L11.948 15.252C11.676 15.772 11.256 16.032 10.688 16.032H10.184C9.904 16.032 9.656 15.968 9.44 15.84C9.224 15.704 9.052 15.508 8.924 15.252L3.92 5.772C3.944 6.052 3.964 6.324 3.98 6.588C3.996 6.844 4.004 7.084 4.004 7.308V18H0.824V0.587999H3.56C3.712 0.587999 3.848 0.591999 3.968 0.599999C4.088 0.607999 4.192 0.631999 4.28 0.671999C4.376 0.703999 4.46 0.759999 4.532 0.839999C4.612 0.911999 4.688 1.016 4.76 1.152L9.632 10.44C9.784 10.72 9.924 11.008 10.052 11.304C10.188 11.6 10.316 11.904 10.436 12.216C10.556 11.896 10.68 11.584 10.808 11.28C10.944 10.976 11.088 10.684 11.24 10.404L16.076 1.152C16.148 1.016 16.224 0.911999 16.304 0.839999C16.384 0.759999 16.468 0.703999 16.556 0.671999C16.652 0.631999 16.756 0.607999 16.868 0.599999C16.988 0.591999 17.128 0.587999 17.288 0.587999H20.024ZM30.6691 10.356C30.6691 10.012 30.6211 9.684 30.5251 9.372C30.4371 9.06 30.2931 8.784 30.0931 8.544C29.8931 8.304 29.6411 8.116 29.3371 7.98C29.0331 7.836 28.6691 7.764 28.2451 7.764C27.4531 7.764 26.8331 7.988 26.3851 8.436C25.9371 8.884 25.6451 9.524 25.5091 10.356H30.6691ZM25.4611 12.324C25.5651 13.484 25.8931 14.332 26.4451 14.868C27.0051 15.404 27.7331 15.672 28.6291 15.672C29.0851 15.672 29.4771 15.62 29.8051 15.516C30.1411 15.404 30.4331 15.284 30.6811 15.156C30.9371 15.02 31.1651 14.9 31.3651 14.796C31.5731 14.684 31.7771 14.628 31.9771 14.628C32.2331 14.628 32.4331 14.724 32.5771 14.916L33.5371 16.116C33.1851 16.524 32.7971 16.864 32.3731 17.136C31.9491 17.4 31.5091 17.612 31.0531 17.772C30.5971 17.924 30.1371 18.028 29.6731 18.084C29.2091 18.148 28.7611 18.18 28.3291 18.18C27.4651 18.18 26.6571 18.04 25.9051 17.76C25.1611 17.472 24.5091 17.052 23.9491 16.5C23.3971 15.94 22.9611 15.248 22.6411 14.424C22.3211 13.6 22.1611 12.644 22.1611 11.556C22.1611 10.716 22.2971 9.924 22.5691 9.18C22.8491 8.436 23.2491 7.788 23.7691 7.236C24.2891 6.684 24.9211 6.248 25.6651 5.928C26.4091 5.6 27.2491 5.436 28.1851 5.436C28.9771 5.436 29.7051 5.564 30.3691 5.82C31.0411 6.068 31.6171 6.432 32.0971 6.912C32.5851 7.392 32.9611 7.984 33.2251 8.688C33.4971 9.384 33.6331 10.18 33.6331 11.076C33.6331 11.324 33.6211 11.528 33.5971 11.688C33.5731 11.848 33.5331 11.976 33.4771 12.072C33.4211 12.168 33.3451 12.236 33.2491 12.276C33.1531 12.308 33.0291 12.324 32.8771 12.324H25.4611ZM39.8197 18.192C39.2597 18.192 38.7637 18.112 38.3317 17.952C37.8997 17.784 37.5357 17.548 37.2397 17.244C36.9437 16.94 36.7197 16.572 36.5677 16.14C36.4157 15.708 36.3397 15.22 36.3397 14.676V8.004H35.1757C34.9997 8.004 34.8477 7.948 34.7197 7.836C34.5997 7.724 34.5397 7.556 34.5397 7.332V6.036L36.5197 5.676L37.1917 2.472C37.2797 2.112 37.5237 1.932 37.9237 1.932H39.6517V5.7H42.8437V8.004H39.6517V14.46C39.6517 14.804 39.7317 15.076 39.8917 15.276C40.0597 15.476 40.2957 15.576 40.5997 15.576C40.7597 15.576 40.8957 15.56 41.0077 15.528C41.1197 15.488 41.2157 15.448 41.2957 15.408C41.3757 15.36 41.4477 15.32 41.5117 15.288C41.5837 15.248 41.6557 15.228 41.7277 15.228C41.8237 15.228 41.9037 15.252 41.9677 15.3C42.0317 15.34 42.0957 15.412 42.1597 15.516L43.1557 17.1C42.6997 17.46 42.1837 17.732 41.6077 17.916C41.0317 18.1 40.4357 18.192 39.8197 18.192ZM51.086 12.828C50.278 12.868 49.606 12.94 49.07 13.044C48.534 13.14 48.106 13.268 47.786 13.428C47.474 13.588 47.25 13.772 47.114 13.98C46.986 14.18 46.922 14.4 46.922 14.64C46.922 15.12 47.054 15.46 47.318 15.66C47.59 15.86 47.966 15.96 48.446 15.96C48.998 15.96 49.474 15.864 49.874 15.672C50.282 15.472 50.686 15.164 51.086 14.748V12.828ZM44.342 7.344C45.07 6.688 45.874 6.2 46.754 5.88C47.634 5.552 48.586 5.388 49.61 5.388C50.346 5.388 51.002 5.508 51.578 5.748C52.162 5.988 52.654 6.324 53.054 6.756C53.462 7.18 53.774 7.688 53.99 8.28C54.206 8.872 54.314 9.52 54.314 10.224V18H52.802C52.49 18 52.25 17.956 52.082 17.868C51.922 17.78 51.79 17.596 51.686 17.316L51.422 16.524C51.11 16.796 50.806 17.036 50.51 17.244C50.222 17.452 49.922 17.628 49.61 17.772C49.298 17.908 48.962 18.012 48.602 18.084C48.25 18.156 47.854 18.192 47.414 18.192C46.87 18.192 46.374 18.12 45.926 17.976C45.478 17.832 45.09 17.62 44.762 17.34C44.442 17.052 44.194 16.696 44.018 16.272C43.842 15.848 43.754 15.36 43.754 14.808C43.754 14.352 43.87 13.896 44.102 13.44C44.334 12.984 44.73 12.572 45.29 12.204C45.858 11.828 46.61 11.52 47.546 11.28C48.49 11.032 49.67 10.892 51.086 10.86V10.224C51.086 9.448 50.922 8.88 50.594 8.52C50.266 8.152 49.794 7.968 49.178 7.968C48.722 7.968 48.342 8.024 48.038 8.136C47.734 8.24 47.466 8.356 47.234 8.484C47.01 8.604 46.798 8.72 46.598 8.832C46.398 8.936 46.166 8.988 45.902 8.988C45.67 8.988 45.474 8.932 45.314 8.82C45.162 8.7 45.034 8.56 44.93 8.4L44.342 7.344ZM56.8393 9.372H63.1753V12.084H56.8393V9.372ZM78.1644 13.716C78.3644 13.716 78.5324 13.788 78.6684 13.932L80.0964 15.456C79.3924 16.352 78.5164 17.032 77.4684 17.496C76.4284 17.96 75.1884 18.192 73.7484 18.192C72.4444 18.192 71.2724 17.972 70.2324 17.532C69.1924 17.084 68.3084 16.464 67.5804 15.672C66.8524 14.88 66.2924 13.94 65.9004 12.852C65.5084 11.764 65.3124 10.576 65.3124 9.288C65.3124 8.424 65.4044 7.604 65.5884 6.828C65.7804 6.044 66.0564 5.324 66.4164 4.668C66.7764 4.012 67.2084 3.42 67.7124 2.892C68.2244 2.364 68.8004 1.916 69.4404 1.548C70.0804 1.172 70.7764 0.887999 71.5284 0.696C72.2884 0.495999 73.0964 0.395998 73.9524 0.395998C74.5924 0.395998 75.1964 0.451999 75.7644 0.563999C76.3404 0.676 76.8764 0.832 77.3724 1.032C77.8684 1.232 78.3244 1.476 78.7404 1.764C79.1644 2.044 79.5444 2.352 79.8804 2.688L78.6684 4.344C78.5964 4.448 78.5044 4.54 78.3924 4.62C78.2804 4.7 78.1284 4.74 77.9364 4.74C77.7444 4.74 77.5484 4.672 77.3484 4.536C77.1564 4.4 76.9164 4.248 76.6284 4.08C76.3484 3.912 75.9924 3.76 75.5604 3.624C75.1364 3.488 74.5964 3.42 73.9404 3.42C73.2124 3.42 72.5444 3.552 71.9364 3.816C71.3284 4.08 70.8044 4.464 70.3644 4.968C69.9324 5.464 69.5964 6.076 69.3564 6.804C69.1164 7.532 68.9964 8.36 68.9964 9.288C68.9964 10.224 69.1244 11.06 69.3804 11.796C69.6444 12.524 70.0004 13.14 70.4484 13.644C70.9044 14.148 71.4324 14.532 72.0324 14.796C72.6404 15.052 73.2884 15.18 73.9764 15.18C74.3844 15.18 74.7524 15.16 75.0804 15.12C75.4164 15.08 75.7244 15.012 76.0044 14.916C76.2924 14.82 76.5604 14.696 76.8084 14.544C77.0644 14.392 77.3204 14.2 77.5764 13.968C77.6644 13.896 77.7564 13.836 77.8524 13.788C77.9484 13.74 78.0524 13.716 78.1644 13.716ZM91.3207 11.388L89.4367 6.06C89.3247 5.78 89.2047 5.452 89.0767 5.076C88.9567 4.7 88.8407 4.292 88.7287 3.852C88.6167 4.3 88.4967 4.716 88.3687 5.1C88.2487 5.476 88.1327 5.804 88.0207 6.084L86.1487 11.388H91.3207ZM97.3687 18H94.5727C94.2607 18 94.0047 17.928 93.8047 17.784C93.6127 17.632 93.4687 17.44 93.3727 17.208L92.1967 13.884H85.2607L84.0847 17.208C84.0047 17.408 83.8647 17.592 83.6647 17.76C83.4647 17.92 83.2127 18 82.9087 18H80.0887L86.8927 0.587999H90.5767L97.3687 18ZM105.663 15.12C106.247 15.12 106.771 15.024 107.235 14.832C107.699 14.632 108.091 14.352 108.411 13.992C108.731 13.632 108.975 13.196 109.143 12.684C109.311 12.172 109.395 11.596 109.395 10.956V0.587999H112.995V10.956C112.995 12.012 112.823 12.984 112.479 13.872C112.143 14.752 111.659 15.512 111.027 16.152C110.395 16.792 109.627 17.292 108.723 17.652C107.819 18.012 106.799 18.192 105.663 18.192C104.527 18.192 103.503 18.012 102.591 17.652C101.687 17.292 100.919 16.792 100.287 16.152C99.6549 15.512 99.1669 14.752 98.8229 13.872C98.4869 12.984 98.3189 12.012 98.3189 10.956V0.587999H101.919V10.956C101.919 11.596 102.003 12.172 102.171 12.684C102.339 13.196 102.583 13.632 102.903 13.992C103.223 14.352 103.615 14.632 104.079 14.832C104.543 15.024 105.071 15.12 105.663 15.12Z" fill="#ECECEC"/>
</svg>
